<svg width="49" height="66" viewBox="0 0 49 66" fill="none" xmlns="http://www.w3.org/2000/svg">
<g filter="url(#filter0_dddd_4_99)">
<path d="M10.6265 7.0326L15.6047 12.0108L13.5069 14.1086L8.52864 9.13043L10.6265 7.0326Z" fill="#616161"/>
<path opacity="0.2" d="M10.6268 7.977L14.6603 12.0105L13.5069 13.1639L9.47007 9.13039L10.6268 7.977ZM10.6268 7.03363L8.53003 9.13039L13.5069 14.1073L15.6037 12.0105L10.6268 7.03363Z" fill="#424242"/>
<path d="M12.7836 8.51703L10.0735 11.2272C9.58681 11.7138 8.79678 11.7138 8.31009 11.2272L8.05008 10.9671C7.56339 10.4805 7.56339 9.69042 8.05008 9.20373L10.7602 6.4936C11.2469 6.00691 12.0369 6.00691 12.5236 6.4936L12.7836 6.75361C13.2703 7.24363 13.2703 8.03367 12.7836 8.51703Z" fill="#757575"/>
<path opacity="0.2" d="M11.6435 6.79693C11.7969 6.79693 11.9436 6.85693 12.0536 6.96694L12.3136 7.22695C12.5402 7.45363 12.5402 7.82031 12.3136 8.04699L9.60344 10.7571C9.49344 10.8671 9.3501 10.9271 9.19342 10.9271C9.03675 10.9271 8.89341 10.8671 8.78341 10.7571L8.52339 10.4971C8.29672 10.2704 8.29672 9.90374 8.52339 9.67707L11.2335 6.96694C11.3435 6.85693 11.4869 6.79693 11.6435 6.79693ZM11.6435 6.13023C11.3235 6.13023 11.0068 6.25024 10.7635 6.49358L8.05337 9.20371C7.56668 9.6904 7.56668 10.4804 8.05337 10.9671L8.31338 11.2271C8.55673 11.4705 8.87674 11.5905 9.19342 11.5905C9.51344 11.5905 9.83012 11.4705 10.0735 11.2271L12.7836 8.51701C13.2703 8.03032 13.2703 7.24029 12.7836 6.7536L12.5236 6.49358C12.2802 6.25357 11.9602 6.13023 11.6435 6.13023Z" fill="#424242"/>
<path d="M40.1748 9.12974L35.1966 14.108L33.0988 12.0101L38.077 7.03191L40.1748 9.12974Z" fill="#616161"/>
<path opacity="0.2" d="M38.0748 7.977L39.2282 9.13039L35.1947 13.1639L34.0413 12.0105L38.0748 7.977ZM38.0748 7.03363L33.0979 12.0105L35.1947 14.1073L40.1716 9.13039L38.0748 7.03363Z" fill="#424242"/>
<path d="M35.918 8.51703L38.6281 11.2272C39.1148 11.7138 39.9048 11.7138 40.3915 11.2272L40.6515 10.9671C41.1382 10.4805 41.1382 9.69042 40.6515 9.20373L37.9414 6.4936C37.4547 6.00691 36.6647 6.00691 36.178 6.4936L35.918 6.75361C35.4313 7.24363 35.4313 8.03367 35.918 8.51703Z" fill="#757575"/>
<path opacity="0.2" d="M37.058 6.79693C37.2114 6.79693 37.3581 6.85693 37.4681 6.96694L40.1782 9.67707C40.4049 9.90374 40.4049 10.2704 40.1782 10.4971L39.9182 10.7571C39.8082 10.8671 39.6648 10.9271 39.5082 10.9271C39.3515 10.9271 39.2082 10.8671 39.0981 10.7571L36.388 8.04699C36.1613 7.82031 36.1613 7.45363 36.388 7.22695L36.648 6.96694C36.758 6.85693 36.9047 6.79693 37.058 6.79693ZM37.058 6.13023C36.738 6.13023 36.4214 6.25024 36.178 6.49358L35.918 6.7536C35.4313 7.24029 35.4313 8.03032 35.918 8.51701L38.6281 11.2271C38.8715 11.4705 39.1915 11.5905 39.5082 11.5905C39.8282 11.5905 40.1449 11.4705 40.3882 11.2271L40.6482 10.9671C41.1349 10.4804 41.1349 9.6904 40.6482 9.20371L37.9381 6.49358C37.6981 6.25357 37.3781 6.13023 37.058 6.13023Z" fill="#424242"/>
<path d="M25.8182 1.28169V8.32202H22.8514V1.28169H25.8182Z" fill="#616161"/>
<path opacity="0.2" d="M25.1509 1.95005V7.65699H23.5175V1.95005H25.1509ZM25.8176 1.28336H22.8508V8.32369H25.8176V1.28336Z" fill="#424242"/>
<path d="M27.821 4.83351H21.034C20.0673 4.83351 19.2839 4.05014 19.2839 3.08343V2.75008C19.2839 1.78337 20.0673 1 21.034 1H27.821C28.7877 1 29.5711 1.78337 29.5711 2.75008V3.08343C29.5711 4.05014 28.7877 4.83351 27.821 4.83351Z" fill="#757575"/>
<path opacity="0.2" d="M27.821 1.6667C28.4177 1.6667 28.9044 2.15339 28.9044 2.75008V3.08343C28.9044 3.68013 28.4177 4.16682 27.821 4.16682H21.034C20.4373 4.16682 19.9506 3.68013 19.9506 3.08343V2.75008C19.9506 2.15339 20.4373 1.6667 21.034 1.6667H27.821ZM27.821 1H21.034C20.0673 1 19.2839 1.78337 19.2839 2.75008V3.08343C19.2839 4.05014 20.0673 4.83351 21.034 4.83351H27.821C28.7877 4.83351 29.5711 4.05014 29.5711 3.08343V2.75008C29.5711 1.78337 28.7877 1 27.821 1Z" fill="#424242"/>
<path d="M24.3441 40.9552C33.9231 40.9552 41.6883 33.19 41.6883 23.6111C41.6883 14.0321 33.9231 6.26691 24.3441 6.26691C14.7652 6.26691 7 14.0321 7 23.6111C7 33.19 14.7652 40.9552 24.3441 40.9552Z" fill="#616161"/>
<path d="M24.4274 37.0517C31.8505 37.0517 37.8681 31.0341 37.8681 23.6111C37.8681 16.188 31.8505 10.1704 24.4274 10.1704C17.0044 10.1704 10.9868 16.188 10.9868 23.6111C10.9868 31.0341 17.0044 37.0517 24.4274 37.0517Z" fill="url(#paint0_linear_4_99)"/>
<path d="M24.0374 15.3007L22.9607 24.5011L24.3008 25.2778L25.8808 24.5011L24.7108 15.2973C24.6508 14.954 24.0907 14.9573 24.0374 15.3007Z" fill="#F44336"/>
<path d="M13.6637 24.8044C14.3025 24.8044 14.8204 24.2866 14.8204 23.6477C14.8204 23.0089 14.3025 22.491 13.6637 22.491C13.0248 22.491 12.507 23.0089 12.507 23.6477C12.507 24.2866 13.0248 24.8044 13.6637 24.8044Z" fill="#757575"/>
<path d="M24.3142 13.7939C24.953 13.7939 25.4709 13.276 25.4709 12.6372C25.4709 11.9984 24.953 11.4805 24.3142 11.4805C23.6754 11.4805 23.1575 11.9984 23.1575 12.6372C23.1575 13.276 23.6754 13.7939 24.3142 13.7939Z" fill="#757575"/>
<path d="M24.3142 35.4549C24.953 35.4549 25.4709 34.9371 25.4709 34.2982C25.4709 33.6594 24.953 33.1415 24.3142 33.1415C23.6754 33.1415 23.1575 33.6594 23.1575 34.2982C23.1575 34.9371 23.6754 35.4549 24.3142 35.4549Z" fill="#757575"/>
<path d="M34.9647 24.8044C35.6035 24.8044 36.1214 24.2866 36.1214 23.6477C36.1214 23.0089 35.6035 22.491 34.9647 22.491C34.3259 22.491 33.808 23.0089 33.808 23.6477C33.808 24.2866 34.3259 24.8044 34.9647 24.8044Z" fill="#757575"/>
<path opacity="0.2" d="M24.4274 10.8371C31.4711 10.8371 37.2014 16.5674 37.2014 23.6111C37.2014 30.6547 31.4711 36.385 24.4274 36.385C17.3838 36.385 11.6535 30.6547 11.6535 23.6111C11.6535 16.5674 17.3838 10.8371 24.4274 10.8371ZM24.4274 10.1704C17.0038 10.1704 10.9868 16.1874 10.9868 23.6111C10.9868 31.0348 17.0038 37.0517 24.4274 37.0517C31.8511 37.0517 37.8681 31.0348 37.8681 23.6111C37.8681 16.1874 31.8511 10.1704 24.4274 10.1704Z" fill="#424242"/>
<path opacity="0.2" d="M24.3441 7.26695C33.3579 7.26695 40.6882 14.6006 40.6882 23.6111C40.6882 32.6215 33.3546 39.9552 24.3441 39.9552C15.3337 39.9552 8.00005 32.6215 8.00005 23.6111C8.00005 14.6006 15.3304 7.26695 24.3441 7.26695ZM24.3441 6.26691C14.7637 6.26691 7 14.0339 7 23.6111C7 33.1882 14.767 40.9552 24.3441 40.9552C33.9213 40.9552 41.6883 33.1882 41.6883 23.6111C41.6883 14.0339 33.9246 6.26691 24.3441 6.26691Z" fill="#424242"/>
<path d="M24.3441 25.6345C25.4616 25.6345 26.3675 24.7286 26.3675 23.6111C26.3675 22.4936 25.4616 21.5876 24.3441 21.5876C23.2266 21.5876 22.3207 22.4936 22.3207 23.6111C22.3207 24.7286 23.2266 25.6345 24.3441 25.6345Z" fill="#424242"/>
<path d="M24.3442 24.4778C24.8229 24.4778 25.211 24.0897 25.211 23.6111C25.211 23.1324 24.8229 22.7444 24.3442 22.7444C23.8656 22.7444 23.4775 23.1324 23.4775 23.6111C23.4775 24.0897 23.8656 24.4778 24.3442 24.4778Z" fill="#CFD8DC"/>
</g>
<defs>
<filter id="filter0_dddd_4_99" x="0" y="0" width="48.6882" height="65.9552" filterUnits="userSpaceOnUse" color-interpolation-filters="sRGB">
<feFlood flood-opacity="0" result="BackgroundImageFix"/>
<feColorMatrix in="SourceAlpha" type="matrix" values="0 0 0 0 0 0 0 0 0 0 0 0 0 0 0 0 0 0 127 0" result="hardAlpha"/>
<feOffset dy="1"/>
<feGaussianBlur stdDeviation="1"/>
<feColorMatrix type="matrix" values="0 0 0 0 0 0 0 0 0 0 0 0 0 0 0 0 0 0 0.1 0"/>
<feBlend mode="normal" in2="BackgroundImageFix" result="effect1_dropShadow_4_99"/>
<feColorMatrix in="SourceAlpha" type="matrix" values="0 0 0 0 0 0 0 0 0 0 0 0 0 0 0 0 0 0 127 0" result="hardAlpha"/>
<feOffset dy="4"/>
<feGaussianBlur stdDeviation="2"/>
<feColorMatrix type="matrix" values="0 0 0 0 0 0 0 0 0 0 0 0 0 0 0 0 0 0 0.09 0"/>
<feBlend mode="normal" in2="effect1_dropShadow_4_99" result="effect2_dropShadow_4_99"/>
<feColorMatrix in="SourceAlpha" type="matrix" values="0 0 0 0 0 0 0 0 0 0 0 0 0 0 0 0 0 0 127 0" result="hardAlpha"/>
<feOffset dy="10"/>
<feGaussianBlur stdDeviation="3"/>
<feColorMatrix type="matrix" values="0 0 0 0 0 0 0 0 0 0 0 0 0 0 0 0 0 0 0.05 0"/>
<feBlend mode="normal" in2="effect2_dropShadow_4_99" result="effect3_dropShadow_4_99"/>
<feColorMatrix in="SourceAlpha" type="matrix" values="0 0 0 0 0 0 0 0 0 0 0 0 0 0 0 0 0 0 127 0" result="hardAlpha"/>
<feOffset dy="18"/>
<feGaussianBlur stdDeviation="3.5"/>
<feColorMatrix type="matrix" values="0 0 0 0 0 0 0 0 0 0 0 0 0 0 0 0 0 0 0.01 0"/>
<feBlend mode="normal" in2="effect3_dropShadow_4_99" result="effect4_dropShadow_4_99"/>
<feBlend mode="normal" in="SourceGraphic" in2="effect4_dropShadow_4_99" result="shape"/>
</filter>
<linearGradient id="paint0_linear_4_99" x1="24.4288" y1="13.6189" x2="24.4288" y2="39.4918" gradientUnits="userSpaceOnUse">
<stop offset="0.3212" stop-color="#ECEFF1"/>
<stop offset="1" stop-color="#B0BEC5"/>
</linearGradient>
</defs>
</svg>
