<svg width="72" height="72" viewBox="0 0 72 72" fill="none" xmlns="http://www.w3.org/2000/svg">
<path d="M0 36C0 16.1178 16.1178 0 36 0H67.7647C70.1038 0 72 1.89621 72 4.23529V67.7647C72 70.1038 70.1038 72 67.7647 72H36C16.1178 72 0 55.8823 0 36Z" fill="#9381FF"/>
<mask id="mask0_4_14" style="mask-type:alpha" maskUnits="userSpaceOnUse" x="16" y="12" width="48" height="48">
<rect x="16" y="12" width="48" height="48" fill="#D9D9D9"/>
</mask>
<g mask="url(#mask0_4_14)">
<path d="M34.95 44.85L48.9 36L34.95 27.1V44.85ZM39.984 57.05C37.1067 57.05 34.3792 56.5066 31.8017 55.4198C29.2241 54.333 26.9811 52.8355 25.0728 50.9272C23.1645 49.0189 21.667 46.7761 20.5802 44.1987C19.4934 41.6214 18.95 38.8908 18.95 36.0069C18.95 33.0932 19.4944 30.3553 20.5831 27.7931C21.6719 25.231 23.1753 22.9908 25.0933 21.0725C27.0113 19.1543 29.2514 17.646 31.8138 16.5476C34.3762 15.4492 37.0938 14.9 39.9668 14.9C42.8851 14.9 45.6332 15.4476 48.2111 16.5429C50.7889 17.6382 53.0315 19.1424 54.9391 21.0557C56.8466 22.969 58.3503 25.2109 59.4502 27.7814C60.5501 30.3519 61.1 33.1005 61.1 36.0271C61.1 38.9182 60.5508 41.6413 59.4524 44.1962C58.354 46.7511 56.8457 48.9878 54.9275 50.9062C53.0092 52.8246 50.7689 54.3281 48.2064 55.4169C45.644 56.5056 42.9032 57.05 39.984 57.05Z" fill="#000067"/>
</g>
</svg>
